<?xml version="1.0" encoding="utf-8"?>
<!-- Generator: Adobe Illustrator 22.1.0, SVG Export Plug-In . SVG Version: 6.00 Build 0)  -->
<svg version="1.1" id="Layer_1" xmlns="http://www.w3.org/2000/svg" xmlns:xlink="http://www.w3.org/1999/xlink" x="0px" y="0px"
	 width="550px" height="94px" viewBox="0 0 550 94" style="enable-background:new 0 0 550 94;" xml:space="preserve">
<style type="text/css">
	.st0{fill:#FFFFFF;}
	.st1{fill:#BDB9B5;}
	.st2{fill:#007BA0;}
	.st3{fill:#8A0021;}
	.st4{fill:#231F20;}
</style>
<g>
	<g>
		<g>
			<polygon class="st0" points="52.5,91.9 37.4,65.6 52.5,39.4 82.9,39.4 98.1,65.6 82.9,91.9 			"/>
			<g>
				<g>
					<polygon class="st0" points="44,54.2 28.8,28 44,1.7 74.3,1.7 89.5,28 74.3,54.2 					"/>
				</g>
			</g>
		</g>
		<g>
			<g>
				<polygon class="st0" points="15.6,80.5 0.5,54.2 15.6,28 46,28 61.1,54.2 46,80.5 				"/>
			</g>
		</g>
		<polygon class="st0" points="52.6,39.4 61.1,54.2 44,54.2 		"/>
	</g>
	<g>
		<g>
			<polygon class="st1" points="52.5,91.9 37.4,65.6 52.5,39.4 82.9,39.4 98.1,65.6 82.9,91.9 			"/>
			<g>
				<g>
					<polygon class="st2" points="44,54.2 28.8,28 44,1.7 74.3,1.7 89.5,28 74.3,54.2 					"/>
				</g>
			</g>
		</g>
		<g>
			<g>
				<polygon class="st3" points="15.6,80.5 0.5,54.2 15.6,28 46,28 61.1,54.2 46,80.5 				"/>
			</g>
		</g>
		<polygon class="st0" points="52.6,39.4 61.1,54.2 44,54.2 		"/>
	</g>
</g>
<rect x="109.2" y="92.3" width="440.3" height="1.5"/>
<rect x="109.2" y="0.2" width="440.3" height="1.5"/>
<g>
	<path class="st4" d="M109.3,20h8.8c5.2,0,8.5,3,8.5,7.5v0.1c0,5-4,7.6-9,7.6h-4.4v7.2h-3.9V20z M117.8,31.7c3,0,4.8-1.7,4.8-4v-0.1
		c0-2.6-1.9-4-4.8-4h-4.6v8.1H117.8z"/>
	<path class="st4" d="M130,20h10c2.8,0,5,0.8,6.5,2.2c1.2,1.2,1.9,2.9,1.9,4.8v0.1c0,3.7-2.2,5.9-5.3,6.8l6,8.5h-4.7l-5.5-7.8h-4.9
		v7.8H130V20z M139.7,31.1c2.8,0,4.6-1.5,4.6-3.7v-0.1c0-2.4-1.7-3.7-4.6-3.7h-5.7v7.5H139.7z"/>
	<path class="st4" d="M152.7,20h3.9v22.4h-3.9V20z"/>
	<path class="st4" d="M167.5,23.7h-7.1V20h18.2v3.6h-7.1v18.8h-3.9V23.7z"/>
	<path class="st4" d="M180.8,39.5l13.2-16h-12.8V20h18v2.9l-13.2,16h13.2v3.5h-18.4V39.5z"/>
	<path class="st4" d="M203.5,20h3.9v11.3L218,20h4.9l-9.3,9.6l9.8,12.8h-4.8l-7.6-10.1l-3.5,3.6v6.5h-3.9V20z"/>
	<path class="st4" d="M226.1,20h16.6v3.5H230v5.8h11.2v3.6H230v6h12.8v3.5h-16.8V20z"/>
	<path class="st4" d="M246.9,20h10c2.8,0,5,0.8,6.5,2.2c1.2,1.2,1.9,2.9,1.9,4.8v0.1c0,3.7-2.2,5.9-5.3,6.8l6,8.5h-4.7l-5.5-7.8
		h-4.9v7.8h-3.9V20z M256.6,31.1c2.8,0,4.6-1.5,4.6-3.7v-0.1c0-2.4-1.7-3.7-4.6-3.7h-5.7v7.5H256.6z"/>
	<path class="st4" d="M276.8,39.2l2.4-2.8c2.1,1.9,4.3,2.9,7.1,2.9c2.4,0,4-1.2,4-2.8v-0.1c0-1.6-0.9-2.5-5.1-3.4
		c-4.8-1.2-7.5-2.6-7.5-6.7v-0.1c0-3.8,3.2-6.5,7.6-6.5c3.3,0,5.9,1,8.1,2.8l-2.1,3c-2-1.5-4-2.3-6.1-2.3c-2.3,0-3.6,1.2-3.6,2.7
		v0.1c0,1.7,1,2.5,5.3,3.5c4.7,1.2,7.2,2.8,7.2,6.6v0.1c0,4.2-3.3,6.7-8,6.7C282.7,42.7,279.5,41.6,276.8,39.2z"/>
	<path class="st4" d="M297.2,31.3L297.2,31.3c0-6.4,4.8-11.6,11.5-11.6c4.2,0,6.7,1.4,8.8,3.5L315,26c-1.8-1.7-3.7-2.8-6.3-2.8
		c-4.2,0-7.4,3.5-7.4,7.9v0.1c0,4.4,3.1,7.9,7.4,7.9c2.8,0,4.5-1.1,6.4-2.9l2.5,2.6c-2.3,2.4-4.9,4-9.1,4
		C302,42.8,297.2,37.7,297.2,31.3z"/>
	<path class="st4" d="M321.2,20h3.9v9.3h10.7V20h3.9v22.4h-3.9V33h-10.7v9.4h-3.9V20z"/>
	<path class="st4" d="M343.9,31.3L343.9,31.3c0-6.4,4.9-11.6,11.7-11.6c6.9,0,11.7,5.2,11.7,11.5v0.1c0,6.3-4.9,11.6-11.7,11.6
		C348.7,42.8,343.9,37.6,343.9,31.3z M363.2,31.3L363.2,31.3c0-4.4-3.2-8-7.6-8c-4.4,0-7.6,3.5-7.6,7.9v0.1c0,4.4,3.2,7.9,7.6,7.9
		C360,39.2,363.2,35.6,363.2,31.3z"/>
	<path class="st4" d="M370.4,31.3L370.4,31.3c0-6.4,4.9-11.6,11.7-11.6s11.7,5.2,11.7,11.5v0.1c0,6.3-4.9,11.6-11.7,11.6
		C375.2,42.8,370.4,37.6,370.4,31.3z M389.7,31.3L389.7,31.3c0-4.4-3.2-8-7.6-8c-4.4,0-7.6,3.5-7.6,7.9v0.1c0,4.4,3.2,7.9,7.6,7.9
		C386.6,39.2,389.7,35.6,389.7,31.3z"/>
	<path class="st4" d="M398,20h3.9v18.8h11.8v3.6H398V20z"/>
	<path class="st4" d="M425.1,31.3L425.1,31.3c0-6.4,4.9-11.6,11.7-11.6c6.9,0,11.7,5.2,11.7,11.5v0.1c0,6.3-4.9,11.6-11.7,11.6
		C429.9,42.8,425.1,37.6,425.1,31.3z M444.4,31.3L444.4,31.3c0-4.4-3.2-8-7.6-8c-4.4,0-7.6,3.5-7.6,7.9v0.1c0,4.4,3.2,7.9,7.6,7.9
		C441.3,39.2,444.4,35.6,444.4,31.3z"/>
	<path class="st4" d="M452.6,20h16.7v3.6h-12.7v6.1h11.3v3.6h-11.3v9.1h-3.9V20z"/>
	<path class="st4" d="M109.3,52h4.2l6.8,10.6l6.8-10.6h4.2v22.4h-3.9V58.4l-7.1,10.6h-0.1l-7-10.5v16h-3.9V52z"/>
	<path class="st4" d="M135.4,63.3L135.4,63.3c0-6.4,4.9-11.6,11.7-11.6c6.9,0,11.7,5.2,11.7,11.5v0.1c0,6.3-4.9,11.6-11.7,11.6
		C140.2,74.8,135.4,69.6,135.4,63.3z M154.7,63.3L154.7,63.3c0-4.4-3.2-8-7.6-8c-4.4,0-7.6,3.5-7.6,7.9v0.1c0,4.4,3.2,7.9,7.6,7.9
		C151.6,71.2,154.7,67.6,154.7,63.3z"/>
	<path class="st4" d="M163,52h3.9v18.8h11.8v3.6H163V52z"/>
	<path class="st4" d="M182.1,52h16.6v3.5H186v5.8h11.2v3.6H186v6h12.8v3.5h-16.8V52z"/>
	<path class="st4" d="M201.9,63.3L201.9,63.3c0-6.4,4.8-11.6,11.5-11.6c4.2,0,6.7,1.4,8.8,3.5l-2.5,2.9c-1.8-1.7-3.7-2.8-6.3-2.8
		c-4.2,0-7.4,3.5-7.4,7.9v0.1c0,4.4,3.1,7.9,7.4,7.9c2.8,0,4.5-1.1,6.4-2.9l2.5,2.6c-2.3,2.4-4.9,4-9.1,4
		C206.7,74.8,201.9,69.7,201.9,63.3z"/>
	<path class="st4" d="M225.6,64.9V52h3.9v12.7c0,4.2,2.1,6.4,5.7,6.4c3.5,0,5.6-2.1,5.6-6.2V52h3.9v12.7c0,6.7-3.8,10-9.6,10
		C229.3,74.8,225.6,71.4,225.6,64.9z"/>
	<path class="st4" d="M249.5,52h3.9v18.8h11.8v3.6h-15.7V52z"/>
	<path class="st4" d="M276.6,51.9h3.6l9.9,22.6h-4.2l-2.3-5.4H273l-2.3,5.4h-4L276.6,51.9z M282.2,65.5l-3.9-9l-3.8,9H282.2z"/>
	<path class="st4" d="M293.3,52h10c2.8,0,5,0.8,6.5,2.2c1.2,1.2,1.9,2.9,1.9,4.8v0.1c0,3.7-2.2,5.9-5.3,6.8l6,8.5h-4.7l-5.5-7.8
		h-4.9v7.8h-3.9V52z M303,63.1c2.8,0,4.6-1.5,4.6-3.7v-0.1c0-2.4-1.7-3.7-4.6-3.7h-5.7v7.5H303z"/>
	<path class="st4" d="M324.7,52h16.6v3.5h-12.7v5.8h11.2v3.6h-11.2v6h12.8v3.5h-16.8V52z"/>
	<path class="st4" d="M345.5,52h3.6l12,15.5V52h3.9v22.4h-3.3l-12.4-15.9v15.9h-3.9V52z"/>
	<path class="st4" d="M369.2,63.3L369.2,63.3c0-6.3,4.8-11.6,11.6-11.6c3.9,0,6.3,1.1,8.6,3l-2.5,3c-1.7-1.4-3.4-2.4-6.3-2.4
		c-4.1,0-7.3,3.6-7.3,7.9v0.1c0,4.6,3,8,7.6,8c2.1,0,4-0.7,5.4-1.7v-4.2h-5.7v-3.5h9.5v9.4c-2.2,1.9-5.4,3.5-9.3,3.5
		C373.8,74.8,369.2,69.8,369.2,63.3z"/>
	<path class="st4" d="M394.8,52h3.9v22.4h-3.9V52z"/>
	<path class="st4" d="M404.1,52h3.6l12,15.5V52h3.9v22.4h-3.3L408,58.5v15.9h-3.9V52z"/>
	<path class="st4" d="M428.8,52h16.6v3.5h-12.7v5.8h11.2v3.6h-11.2v6h12.8v3.5h-16.8V52z"/>
	<path class="st4" d="M449.6,52h16.6v3.5h-12.7v5.8h11.2v3.6h-11.2v6h12.8v3.5h-16.8V52z"/>
	<path class="st4" d="M470.4,52h10c2.8,0,5,0.8,6.5,2.2c1.2,1.2,1.9,2.9,1.9,4.8v0.1c0,3.7-2.2,5.9-5.3,6.8l6,8.5h-4.7l-5.5-7.8
		h-4.9v7.8h-3.9V52z M480,63.1c2.8,0,4.6-1.5,4.6-3.7v-0.1c0-2.4-1.7-3.7-4.6-3.7h-5.7v7.5H480z"/>
	<path class="st4" d="M493.1,52h3.9v22.4h-3.9V52z"/>
	<path class="st4" d="M502.3,52h3.6l12,15.5V52h3.9v22.4h-3.3l-12.4-15.9v15.9h-3.9V52z"/>
	<path class="st4" d="M526,63.3L526,63.3c0-6.3,4.8-11.6,11.6-11.6c3.9,0,6.3,1.1,8.6,3l-2.5,3c-1.7-1.4-3.4-2.4-6.3-2.4
		c-4.1,0-7.3,3.6-7.3,7.9v0.1c0,4.6,3,8,7.6,8c2.1,0,4-0.7,5.4-1.7v-4.2h-5.7v-3.5h9.5v9.4c-2.2,1.9-5.4,3.5-9.3,3.5
		C530.6,74.8,526,69.8,526,63.3z"/>
</g>
</svg>
