<svg id="Layer_1" data-name="Layer 1" xmlns="http://www.w3.org/2000/svg" viewBox="0 0 549.81 128.24"><title>pme_wordmark_new-white</title><path d="M540.91,124.83a5.1,5.1,0,0,1-5.09-5.28v0a5,5,0,0,1,5-5.23,5.11,5.11,0,0,1,5.09,5.28v0a5,5,0,0,1-5,5.23m0,3.41a8.69,8.69,0,0,0,8.95-8.69v0a8.93,8.93,0,0,0-17.86,0v0a8.61,8.61,0,0,0,8.91,8.64m-21.41,0a10.9,10.9,0,0,0,7.18-2.67v-7.29h-7.3v3.19h3.72v2.4a5.93,5.93,0,0,1-3.48,1,5,5,0,0,1-5.09-5.33v0a5,5,0,0,1,4.83-5.23,6.19,6.19,0,0,1,4.39,1.7l2.33-2.81a9.28,9.28,0,0,0-6.6-2.3,8.62,8.62,0,0,0-8.81,8.69v0a8.41,8.41,0,0,0,8.83,8.64m-23.18-7.32,2.23-5.45,2.23,5.45Zm-6.63,7h3.77l1.54-3.77h7.1l1.54,3.77h3.86L500.25,111h-3.41Zm-10.44.29a8.62,8.62,0,0,0,6.89-3l-2.35-2.38a6.07,6.07,0,0,1-4.42,2,5,5,0,0,1-4.87-5.28v0a5,5,0,0,1,4.87-5.23,6.24,6.24,0,0,1,4.3,1.89l2.35-2.71a8.68,8.68,0,0,0-6.62-2.59,8.54,8.54,0,0,0-8.76,8.69v0a8.48,8.48,0,0,0,8.61,8.64M460.92,128h3.69v-16.8h-3.69Zm-21.65,0H443V121.2h6.82V128h3.7v-16.8h-3.7v6.65H443v-6.65h-3.69Zm-12.66.29a8.62,8.62,0,0,0,6.89-3l-2.35-2.38a6.07,6.07,0,0,1-4.42,2,5,5,0,0,1-4.87-5.28v0a5,5,0,0,1,4.87-5.23,6.24,6.24,0,0,1,4.3,1.89l2.35-2.71a8.69,8.69,0,0,0-6.62-2.59,8.54,8.54,0,0,0-8.76,8.69v0a8.48,8.48,0,0,0,8.61,8.64M390.52,128h3.69v-6.51h8v-3.36h-8v-3.57h9.1v-3.36H390.52Zm-14.71-3.12a5.1,5.1,0,0,1-5.09-5.28v0a5,5,0,0,1,5-5.23,5.11,5.11,0,0,1,5.09,5.28v0a5,5,0,0,1-5,5.23m-.05,3.41a8.69,8.69,0,0,0,8.95-8.69v0a8.93,8.93,0,0,0-17.86,0v0a8.61,8.61,0,0,0,8.91,8.64M342.9,128h3.7v-6.7l6.45-10.1h-4.2l-4.08,6.74-4-6.74h-4.32l6.45,10.17Zm-18.41,0h3.7V114.56h5.11v-3.41H319.38v3.41h5.11Zm-13.6,0h3.69v-16.8h-3.69Zm-12.54.24c3.62,0,6.17-1.87,6.17-5.21v0c0-2.93-1.92-4.15-5.33-5-2.91-.74-3.63-1.1-3.63-2.21v0c0-.82.75-1.47,2.16-1.47a7.91,7.91,0,0,1,4.37,1.66L304,113a9.75,9.75,0,0,0-6.24-2.13c-3.43,0-5.88,2-5.88,5.06v0c0,3.34,2.19,4.27,5.57,5.14,2.81.72,3.38,1.2,3.38,2.13v0c0,1-.91,1.58-2.42,1.58a7.72,7.72,0,0,1-5-2l-2.18,2.62a10.69,10.69,0,0,0,7.13,2.69M276,119.31v-4.83h3.67c1.8,0,2.9.82,2.9,2.4v.05c0,1.42-1,2.38-2.83,2.38Zm-3.7,8.64H276v-5.38h2.9l3.6,5.38h4.32l-4.1-6a5.23,5.23,0,0,0,3.6-5.21v0a5.31,5.31,0,0,0-1.44-3.84,6.72,6.72,0,0,0-4.9-1.7h-7.68Zm-19.34,0h12.79v-3.29h-9.12v-3.53h7.92v-3.29h-7.92v-3.4h9v-3.29H252.92Zm-14.69.12h3.27l6.79-16.92h-4L239.91,123l-4.39-11.83h-4.08ZM223,128h3.69v-16.8H223Zm-22.2,0h3.65V117.27L212.54,128h3.14v-16.8H212v10.34l-7.87-10.34h-3.41Zm-14.36.26c4.51,0,7.36-2.49,7.36-7.58v-9.48h-3.69v9.62c0,2.67-1.37,4-3.63,4s-3.62-1.41-3.62-4.15v-9.5h-3.7v9.6c0,4.94,2.76,7.46,7.28,7.46M150.1,128h12.79v-3.29h-9.12v-3.53h7.92v-3.29h-7.92v-3.4h9v-3.29H150.1Zm-21.4,0h3.7V121.2h6.81V128h3.7v-16.8h-3.7v6.65H132.4v-6.65h-3.7Zm-14.38,0H118V114.56h5.11v-3.41H109.21v3.41h5.11Z" style="fill:#fff"/><rect x="109.27" y="92.16" width="440.33" height="1.5" style="fill:#fff"/><rect x="109.27" width="440.33" height="1.5" style="fill:#fff"/><path d="M109.33,19.86h8.83c5.25,0,8.51,3,8.51,7.48v.07c0,5-4,7.64-9,7.64h-4.45v7.2h-3.94Zm8.51,11.64c3,0,4.83-1.66,4.83-4v-.06c0-2.62-1.88-4-4.83-4h-4.57V31.5Z" style="fill:#fff"/><path d="M130.07,19.86h10a9,9,0,0,1,6.46,2.24,6.74,6.74,0,0,1,1.86,4.83V27c0,3.68-2.21,5.89-5.31,6.79l6.05,8.47h-4.68l-5.5-7.8H134v7.8h-3.93ZM139.76,31c2.82,0,4.61-1.47,4.61-3.74v-.07c0-2.4-1.73-3.71-4.64-3.71H134V31Z" style="fill:#fff"/><path d="M152.79,19.86h3.93V42.25h-3.93Z" style="fill:#fff"/><path d="M167.54,23.5H160.4V19.86h18.21V23.5h-7.14V42.25h-3.93Z" style="fill:#fff"/><path d="M180.88,39.34l13.25-16h-12.8V19.86h17.95v2.91L186,38.77h13.25v3.48h-18.4Z" style="fill:#fff"/><path d="M203.54,19.86h3.93V31.12L218.1,19.86H223l-9.34,9.63,9.76,12.76h-4.8L211,32.18l-3.49,3.58v6.49h-3.93Z" style="fill:#fff"/><path d="M226.13,19.86h16.61v3.52H230.07V29.2H241.3v3.55H230.07v6H242.9v3.51H226.13Z" style="fill:#fff"/><path d="M246.93,19.86h10a9,9,0,0,1,6.47,2.24,6.77,6.77,0,0,1,1.85,4.83V27c0,3.68-2.2,5.89-5.31,6.79L266,42.25H261.3l-5.51-7.8h-4.92v7.8h-3.94Zm9.7,11.1c2.81,0,4.6-1.47,4.6-3.74v-.07c0-2.4-1.72-3.71-4.64-3.71h-5.72V31Z" style="fill:#fff"/><path d="M276.88,39l2.37-2.81a10.39,10.39,0,0,0,7.07,2.91c2.43,0,4-1.16,4-2.82v-.06c0-1.6-.9-2.47-5.06-3.43-4.76-1.15-7.45-2.56-7.45-6.68V26c0-3.84,3.2-6.49,7.65-6.49a12.42,12.42,0,0,1,8.12,2.81l-2.11,3A10.13,10.13,0,0,0,285.36,23c-2.3,0-3.65,1.19-3.65,2.66v.06c0,1.73,1,2.5,5.35,3.52,4.73,1.16,7.16,2.85,7.16,6.56v.07c0,4.19-3.29,6.68-8,6.68A13.8,13.8,0,0,1,276.88,39Z" style="fill:#fff"/><path d="M297.23,31.12v-.06a11.33,11.33,0,0,1,11.52-11.59,11.69,11.69,0,0,1,8.8,3.49L315,25.87a9,9,0,0,0-6.3-2.75c-4.22,0-7.36,3.49-7.36,7.87v.07c0,4.38,3.11,7.93,7.39,7.93,2.76,0,4.51-1.09,6.43-2.88l2.53,2.56a11.54,11.54,0,0,1-9.08,4A11.25,11.25,0,0,1,297.23,31.12Z" style="fill:#fff"/><path d="M321.23,19.86h3.94v9.31h10.69V19.86h3.93V42.25h-3.93V32.82H325.17v9.43h-3.94Z" style="fill:#fff"/><path d="M343.92,31.12v-.06A11.71,11.71,0,0,1,367.34,31v.07a11.71,11.71,0,0,1-23.42.06Zm19.3,0v-.06a7.65,7.65,0,0,0-7.62-7.94A7.54,7.54,0,0,0,348.05,31v.07A7.64,7.64,0,0,0,355.66,39,7.55,7.55,0,0,0,363.22,31.12Z" style="fill:#fff"/><path d="M370.48,31.12v-.06A11.71,11.71,0,0,1,393.9,31v.07a11.71,11.71,0,0,1-23.42.06Zm19.3,0v-.06a7.65,7.65,0,0,0-7.62-7.94A7.54,7.54,0,0,0,374.61,31v.07A7.64,7.64,0,0,0,382.22,39,7.55,7.55,0,0,0,389.78,31.12Z" style="fill:#fff"/><path d="M398,19.86H402V38.67h11.77v3.58H398Z" style="fill:#fff"/><path d="M425.14,31.12v-.06A11.71,11.71,0,0,1,448.56,31v.07a11.71,11.71,0,0,1-23.42.06Zm19.29,0v-.06a7.65,7.65,0,0,0-7.61-7.94A7.55,7.55,0,0,0,429.26,31v.07A7.65,7.65,0,0,0,436.88,39,7.54,7.54,0,0,0,444.43,31.12Z" style="fill:#fff"/><path d="M452.69,19.86h16.67v3.58H456.62v6.11h11.3v3.59h-11.3v9.11h-3.93Z" style="fill:#fff"/><path d="M109.33,51.86h4.19l6.82,10.59,6.81-10.59h4.2V74.25h-3.94V58.19l-7.07,10.56h-.13l-7-10.49v16h-3.87Z" style="fill:#fff"/><path d="M135.47,63.12v-.06A11.72,11.72,0,0,1,158.9,63v.07a11.72,11.72,0,0,1-23.43.06Zm19.3,0v-.06a7.65,7.65,0,0,0-7.62-7.94A7.54,7.54,0,0,0,139.6,63v.07A7.65,7.65,0,0,0,147.22,71,7.54,7.54,0,0,0,154.77,63.12Z" style="fill:#fff"/><path d="M163,51.86H167V70.67h11.78v3.58H163Z" style="fill:#fff"/><path d="M182.16,51.86h16.61v3.52H186.1V61.2h11.23v3.55H186.1v6h12.83v3.51H182.16Z" style="fill:#fff"/><path d="M202,63.12v-.06a11.33,11.33,0,0,1,11.52-11.59,11.69,11.69,0,0,1,8.8,3.49l-2.53,2.91a9,9,0,0,0-6.3-2.75c-4.23,0-7.36,3.49-7.36,7.87v.07c0,4.38,3.1,7.93,7.39,7.93,2.75,0,4.51-1.09,6.43-2.88l2.53,2.56a11.58,11.58,0,0,1-9.09,4A11.25,11.25,0,0,1,202,63.12Z" style="fill:#fff"/><path d="M225.62,64.75V51.86h3.93V64.59c0,4.16,2.15,6.37,5.67,6.37s5.63-2.08,5.63-6.21V51.86h3.94v12.7c0,6.69-3.78,10-9.64,10S225.62,71.25,225.62,64.75Z" style="fill:#fff"/><path d="M249.56,51.86h3.93V70.67h11.78v3.58H249.56Z" style="fill:#fff"/><path d="M276.63,51.7h3.64l9.86,22.55H286l-2.27-5.4H273.11l-2.31,5.4h-4Zm5.63,13.66-3.87-9-3.84,9Z" style="fill:#fff"/><path d="M293.33,51.86h10a9,9,0,0,1,6.47,2.24,6.77,6.77,0,0,1,1.85,4.83V59c0,3.68-2.2,5.89-5.31,6.79l6.05,8.47H307.7l-5.51-7.8h-4.92v7.8h-3.94ZM303,63c2.81,0,4.6-1.47,4.6-3.74v-.07c0-2.4-1.72-3.71-4.64-3.71h-5.72V63Z" style="fill:#fff"/><path d="M324.79,51.86h16.6v3.52H328.72V61.2H340v3.55H328.72v6h12.83v3.51H324.79Z" style="fill:#fff"/><path d="M345.59,51.86h3.64l12,15.48V51.86h3.87V74.25h-3.29L349.46,58.32V74.25h-3.87Z" style="fill:#fff"/><path d="M369.23,63.12v-.06a11.41,11.41,0,0,1,11.55-11.59,12.09,12.09,0,0,1,8.61,3l-2.49,3a8.92,8.92,0,0,0-6.28-2.37c-4.12,0-7.26,3.58-7.26,7.87v.07c0,4.6,3,8,7.62,8a9.14,9.14,0,0,0,5.4-1.7V65.2h-5.72V61.74h9.53v9.41a14.26,14.26,0,0,1-9.34,3.49C373.84,74.64,369.23,69.65,369.23,63.12Z" style="fill:#fff"/><path d="M394.9,51.86h3.93V74.25H394.9Z" style="fill:#fff"/><path d="M404.18,51.86h3.64l12,15.48V51.86h3.88V74.25h-3.3L408.05,58.32V74.25h-3.87Z" style="fill:#fff"/><path d="M428.82,51.86h16.6v3.52H432.75V61.2H444v3.55H432.75v6h12.83v3.51H428.82Z" style="fill:#fff"/><path d="M449.62,51.86h16.6v3.52H453.55V61.2h11.23v3.55H453.55v6h12.83v3.51H449.62Z" style="fill:#fff"/><path d="M470.42,51.86h10a9,9,0,0,1,6.46,2.24,6.74,6.74,0,0,1,1.86,4.83V59c0,3.68-2.21,5.89-5.31,6.79l6,8.47h-4.68l-5.5-7.8h-4.93v7.8h-3.93ZM480.11,63c2.82,0,4.61-1.47,4.61-3.74v-.07c0-2.4-1.73-3.71-4.64-3.71h-5.73V63Z" style="fill:#fff"/><path d="M493.14,51.86h3.93V74.25h-3.93Z" style="fill:#fff"/><path d="M502.42,51.86h3.64l12,15.48V51.86h3.87V74.25h-3.29L506.29,58.32V74.25h-3.87Z" style="fill:#fff"/><path d="M526.06,63.12v-.06a11.41,11.41,0,0,1,11.55-11.59,12.09,12.09,0,0,1,8.61,3l-2.49,3a8.92,8.92,0,0,0-6.28-2.37c-4.12,0-7.26,3.58-7.26,7.87v.07c0,4.6,3,8,7.62,8a9.14,9.14,0,0,0,5.4-1.7V65.2h-5.72V61.74H547v9.41a14.26,14.26,0,0,1-9.34,3.49C530.67,74.64,526.06,69.65,526.06,63.12Z" style="fill:#fff"/><path d="M45.94,80.51H16.07a1.12,1.12,0,0,1-1-.56L.15,54.19a1.12,1.12,0,0,1,0-1.12L15,27.48a1.13,1.13,0,0,1,1-.56H45.64a1.14,1.14,0,0,1,1,.56l15,25.59a1.1,1.1,0,0,1,0,1.12L46.92,80A1.12,1.12,0,0,1,45.94,80.51ZM16.72,78.25H45.28l14.1-24.62L45,29.16H16.62L2.43,53.63Z" style="fill:#fff"/><path d="M82.4,91.74H52.49a1.14,1.14,0,0,1-1-.57L36.43,65.34a1.12,1.12,0,0,1,0-1.12L51.17,38.56a1.14,1.14,0,0,1,1-.56H81.87a1.16,1.16,0,0,1,1,.56L98,64.22a1.1,1.1,0,0,1,0,1.12L83.38,91.17A1.14,1.14,0,0,1,82.4,91.74ZM53.13,89.47H81.72l14-24.69L81.24,40.24H52.81L38.71,64.78Z" style="fill:#fff"/><path d="M73.62,54.75H43.84a1.14,1.14,0,0,1-1-.56l-15-25.59a1.12,1.12,0,0,1,0-1.12L42.59,2.05a1.12,1.12,0,0,1,1-.55H73.15a1.15,1.15,0,0,1,1,.55L89.2,27.48a1.15,1.15,0,0,1,0,1.12L74.6,54.19A1.12,1.12,0,0,1,73.62,54.75ZM44.48,52.51H73L86.93,28,72.52,3.72H44.22L30.16,28Z" style="fill:#fff"/><path d="M60.84,53.72H43.67l8.49-14.79Z" style="fill:#fff"/></svg>