<svg xmlns="http://www.w3.org/2000/svg" width="229" height="20">
    <path fill="maroon" fill-rule="evenodd" d="M224.164 13.618c-2.801 0-4.812-2.038-4.812-4.556v-.026c0-2.518 2.037-4.581 4.838-4.581 2.8 0 4.81 2.038 4.81 4.556v.025c0 2.519-2.035 4.582-4.836 4.582zm2.749-4.582c0-1.518-1.142-2.784-2.749-2.784-1.608 0-2.724 1.241-2.724 2.759v.025c0 1.519 1.141 2.785 2.75 2.785 1.608 0 2.723-1.241 2.723-2.759v-.026zm-12.969 4.582c-2.827 0-4.772-1.936-4.772-4.556v-.026c0-2.518 2.01-4.581 4.759-4.581 1.634 0 2.619.43 3.566 1.215l-1.258 1.481c-.7-.57-1.322-.899-2.373-.899-1.452 0-2.606 1.253-2.606 2.759v.025c0 1.62 1.141 2.81 2.749 2.81.726 0 1.375-.177 1.88-.531v-1.266h-2.01V8.366h3.942v3.847c-.933.772-2.217 1.405-3.877 1.405zm-8.122-2.139h-3.839l-.83 1.987h-2.036l3.891-8.922h1.841l3.891 8.922h-2.088l-.83-1.987zm-1.92-4.594l-1.206 2.873h2.413l-1.207-2.873zm-9.209 4.936c1.037 0 1.673-.405 2.386-1.038l1.271 1.253c-.934.974-1.971 1.582-3.722 1.582-2.672 0-4.656-2.013-4.656-4.556v-.026c0-2.518 1.946-4.581 4.734-4.581 1.712 0 2.736.557 3.579 1.367l-1.271 1.43c-.7-.62-1.413-1-2.321-1-1.53 0-2.633 1.241-2.633 2.759v.025c0 1.519 1.077 2.785 2.633 2.785zm-8.534-7.214h1.996v8.859h-1.996V4.607zm-4.3 5.303h-3.682v3.556h-1.998V4.607h1.998v3.506h3.682V4.607h1.997v8.859h-1.997V9.91zm-10.83 1.911c1.038 0 1.673-.405 2.386-1.038l1.271 1.253c-.933.974-1.971 1.582-3.722 1.582-2.671 0-4.655-2.013-4.655-4.556v-.026c0-2.518 1.945-4.581 4.733-4.581 1.712 0 2.736.557 3.579 1.367l-1.271 1.43c-.7-.62-1.413-1-2.321-1-1.53 0-2.632 1.241-2.632 2.759v.025c0 1.519 1.076 2.785 2.632 2.785zm-14.98-3.557h4.331v1.772h-4.331v3.43h-1.997V4.607h6.912v1.772h-4.915v1.885zm-8.613 5.354c-2.802 0-4.811-2.038-4.811-4.556v-.026c0-2.518 2.035-4.581 4.836-4.581s4.811 2.038 4.811 4.556v.025c0 2.519-2.035 4.582-4.836 4.582zm2.749-4.582c0-1.518-1.141-2.784-2.749-2.784-1.609 0-2.724 1.241-2.724 2.759v.025c0 1.519 1.142 2.785 2.749 2.785 1.608 0 2.724-1.241 2.724-2.759v-.026zm-15.266 4.43h-1.997V9.973l-3.488-5.366h2.334l2.165 3.556 2.205-3.556h2.269l-3.488 5.328v3.531zm-9.178 0h-1.997V6.404h-2.762V4.607h7.521v1.797h-2.762v7.062zm-8.167-8.859h1.997v8.859h-1.997V4.607zm-5.151 8.985c-1.375 0-2.762-.468-3.852-1.417l1.181-1.38c.817.659 1.672 1.076 2.71 1.076.817 0 1.31-.316 1.31-.835v-.025c0-.494-.312-.747-1.829-1.126-1.828-.456-3.008-.95-3.008-2.709v-.025c0-1.608 1.322-2.671 3.177-2.671 1.322 0 2.45.405 3.371 1.127l-1.037 1.468c-.804-.545-1.595-.873-2.36-.873-.766 0-1.167.341-1.167.772v.025c0 .582.389.772 1.958 1.164 1.841.468 2.879 1.114 2.879 2.658v.025c0 1.759-1.375 2.746-3.333 2.746zm-7.061-.126l-1.945-2.835h-1.569v2.835h-1.997V4.607h4.15c1.154 0 2.049.316 2.645.898.506.494.778 1.19.778 2.025v.025c0 1.431-.791 2.33-1.945 2.747l2.217 3.164h-2.334zm.039-5.834c0-.836-.596-1.266-1.569-1.266h-1.984V8.91h2.023c.973 0 1.53-.506 1.53-1.253v-.025zM91.023 4.607h6.847v1.734h-4.863v1.797h4.279v1.734h-4.279v1.86h4.928v1.734h-6.912V4.607zm-6.763 8.922l-3.67-8.922h2.204l2.373 6.239 2.373-6.239h2.153l-3.67 8.922H84.26zm-7.015-8.922h1.997v8.859h-1.997V4.607zm-8.397 3.227v5.632h-1.971V4.607h1.841l4.253 5.455V4.607h1.971v8.859h-1.698l-4.396-5.632zm-8.113 5.771c-2.438 0-3.929-1.329-3.929-3.936V4.607h1.997v5.012c0 1.442.739 2.189 1.958 2.189 1.219 0 1.958-.721 1.958-2.126V4.607h1.997v4.999c0 2.683-1.543 3.999-3.981 3.999zM44.108 4.607h6.847v1.734h-4.863v1.797h4.279v1.734h-4.279v1.86h4.928v1.734h-6.912V4.607zm-4.26 5.303h-3.682v3.556h-1.997V4.607h1.997v3.506h3.682V4.607h1.997v8.859h-1.997V9.91zm-9.829 3.556h-1.997V6.404H25.26V4.607h7.522v1.797h-2.763v7.062zM0 11.56V.392s6.937-.865 16.128 0l.001 11.166c-.676 7.025-6.767 8.22-8.064 8.449-.069.012-7.333-.878-8.065-8.447zm2.962 3.781c.111.204.302-.288.106-.789-.159-.066-.332-.109-.479-.206.104.34.18.637.373.995zM.701 10.276c.879.296 1.71-.5 1.61-.306-.119.225-1.191 1.129-1.659 1.612.364.098.699-.189.963-.409.288-.239.77-.84.696-.542-.779.939-1.393 2.889-1.015 3.014.217-.442 1.113-2.696 1.17-2.685.059.011-.071.595-.09.982-.044.849-.05 1.251.138 2.087.097-.129.19-.126.343-.116.019-.081.014-.061-.082-.185-.25-.321.037-.761-.083-1.028-.1-.224-.157-.045-.202-.278.07-.063.256-.081.332-.093.081-.872.38-1.316.269-.765-.057.278-.144.74-.103.754.042.014.045.013.081.032.016.008 1.502-2.377.678-.724-.108.217-.547.8-.547.8.116.116.225.251.239.333.004.023 1.991-2.552.638-.478-.083.128-.49.553-.593.676-.014.016.037.482.037.482.207-.139.502-.421.64-.6-.018-.264.045-.229.06-.487.063-.039.145.071.244.158.047.041 1.364-2.197.538-.518-.132.269-.426.589-.439.615.056.058.138.242.233.456.003.009 1.761-2.474.693-.598-.084.148-.613.769-.607.786.13.31.244.612.244.612-.032-.242-.083-.719.431-1.112.067.43.186.448.339.58.067.058.193.304.208.094.044-.612-.16-.596-.312-.856-.036-.063-.029-.203-.001-.194 1.266.036 1.224 1.193 1.435 1.193-.096-.295-.122-.585-.008-.822-.34-.235-.255-.636-.19-.81-.381-.385-.162-1.203.02-1.375-.245-.348.057-.586-.008-.8-.103-.755-.793-.53-.948-1.249-.108.128-.307.564-.214.708.107.166.338.181.351.302.006.052.023.196-.015.227-.13.023-.219-.094-.353-.146-.268-.103-.917.33-.957-.053-.024-.241.085-.067.073-.29-.011-.23-.13-.068-.131-.365-.001-.217.267-.286.287-.373.047-.215.449.317.684-.248-.137.019-.414-.074-.388-.206.07-.354.076-1.209-.744-1.025-.295.066-1.115.487-1.228.029-.296.511.289.422.465.411-.069.047-.157.124-.375.079-.462.296-2.149 1.343-2.637 1.606.655.298 1.661-.323 1.675-.323l.012.013c-.002.46-1.328 1.121-1.897 1.418zm3.183 3.147c.051.137.152.233.26.35.136.109.186.205.086-.11-.061-.209-.046-.361-.05-.566-.229.224-.309.229-.296.326zm3.968-5.226a.424.424 0 0 0-.208-.218c-.41-.19-1.196.221-1.187-.379 0 0-.281.204-.153.417.292.487 1.107-.118 1.548.18zM1.683 2.2c-.687 0-.701 1.026 0 1.026.69 0 .69-1.026 0-1.026zm0 2.05c-.717 0-.717 1.025 0 1.025.694 0 .69-1.025 0-1.025zm1.33-1.775h-.611v.586h.611v-.586zm0 2.044h-.611v.587h.611v-.587zM7.952 1.39S6.848.636 5.054 1.311c-.528.199-1.812.032-1.812.032v4.831c1.126.074 2.593-.492 3.319-.445a3.878 3.878 0 0 1 1.391.388V1.39zm.05 5.334c-.155.017-.343.107-.389.266-.095.091-.091-.153-.282-.046-.082.108.131.347.08.362-.209.062-.182-.306-.301-.316-.172.06-.605.445-.179.751-.014-.206.387-.431.519.025.401-.03.536.207.586.342.591.102.421.485.404.485-.056-.083-.31-.465-.727-.201-.096.061-.263.121-.346.04.009.128.174.244.288.214.37-.099.463.237.18.329.061.092.177.087.284.023.16-.095.178-.179.236-.236.101.471-.51.516-.705.544.03.101.096.123.219.158-.645.021-.771.612-.733.952.145.01.369-.298.349-.121-.456.473-.61 1.105-.37 1.509.115-.047.15-.169.191-.269.017-.012.251.089-.123.528-.026.114-.158.458.131.54.11-.127.094-.237.118-.367.084-.033.139.232.107.313-.377.152-.33 1.279.106 1.885-.202-.44-.175-1.005 0-1.457.135-.348.431-1.131.438-1.122.168.201.38 1.065.38 1.422.236-.2.282-.419.474-.566.092.314.129.521.202.798.093-.27.341-.576-.013-1.453.073-.064.207.304.249.287.032-.013.08-.197-.04-.539-.248-.227-.303-.559-.265-.584.033-.02.144.344.276.363.027-.283.097-.572.076-.792-.005-.058-.102-.35-.377-.591-.159-.14-.22-.432-.206-.491.154.138.12.24.251.295.054-.119.017-.559-.141-.752-.091-.146-.048-.126.06-.037.142.164.074.151.196.219.268-.616.025-.736.043-.78.017-.039.207.288.369.163-.264-.137-.256-.343-.286-.566-.023-.176-.139-.242-.095-.285.263.193.336-.021.344-.064-.051.028-.285.058-.313-.297-.012-.14-.232-.202-.232-.202.136-.025.569-.048.466-.468-.053.099-.181.255-.451.194 0 0 .173-.046.142-.228-.417.228-.755-.237-1.19-.177zm5.1-5.34s-1.39.192-2.592-.242c-.982-.353-2.331.264-2.331.264V6.12s.496-.391 1.523-.391c.498 0 2.456.524 3.4.462V1.384zm1.841 1.568s-.03-.54-.622-.54c-.193 0-.427.23-1.027-.024v.915c.243.07.91-.302 1.176-.415.19-.081.459-.028.472.064l.018.127-.017-.127zm-1.666 1.325v.915s.524-.005 1.105-.37c.174-.11.432-.064.56.035h.001s-.078-.6-.599-.525c-.956.136-1.067-.055-1.067-.055zm.311 5.531c.62.747.819 2.367 1.244 3.762 0 0 .273.135.215-1.634-.012-.359-.162-.836-.344-1.168-.36-.658-1.089-1.765-1.068-1.773.176-.14.604.815.976 1.192.242.243.912.481.958.449-.537-1.017-1.84-1.975-1.704-2.094.959.877 1.262.919 1.302.873l-.864-.819c-.244-.319-.567-.564-.521-.555.385.084-.202-.312-.654-.433-.082-.021-.213-.028-.217-.068-.007-.069.106-.039.202-.069.062-.017.124-.063.126-.15a.826.826 0 0 1-.498-.068c-.306-.139-.852-.299-1.105-.202-.147.056-.175.048-.333.168-.07-.029-.263-.149-.535.172-.085.099-.186.215-.191.3-.012.215.005.011.059.215.022.085-.078.241-.48.374-.155.05-.116.2-.116.2.077-.037.199-.121.387-.035.367.168.439-.098.667-.286 0 0-.063.238 0 .251.285.057.189.266.154.297-.36.313-.209.432-.338.625-.121.182-.307.251-.586.243-.383-.012.503-.578-.345-.813.133.217.187.391-.11.559-.186.105-.091.644-.571.394 0 .001-.039.399-.094.416.651.556.287.86.32 1.655.204.506-.02.746-.071.774.032.343.066.531.285.809.159.203-.015.514.147.73.15-.516.31-.301.353-1.018.06-.121.307-.333.448-.347-.003.433.161.827.126 1.009 0 0 .374-.066.49-.026a.278.278 0 0 1 .165.22c-.127.078-.128.048-.319.185-.336.239-.491.725-.491.725-.001.001.789-.614.846-.725.045-.088.088-.223.13-.363.004-.015-.407-.249-.52-.464-.353-.669.546.397.568.304.053-.232.218-.45.218-.45-.058-.065-.199-.106-.414-.477-.492-.845.571.362.571.362.282-.158.283.053.319.275.003.021.478.363.501.385a1.37 1.37 0 0 0 .286-.401c.007-.015-.858-.764-1.006-1.012-1.192-1.995.965.886 1.067.807.056-.156.076-.37.07-.662-.001-.007-.406-.28-.666-.698-1.001-1.614.658.481.657.466-.02-.345-.31-1.844-.109-1.394.102.231.425 1.189.366 2.164.112-.177.574-.357.749-.401-.039-1.448-.949-3.054-.702-2.755zm-1.344 4.251a2.342 2.342 0 0 1-.108.236c-.041.081.084.023.275-.141 0 0-.159-.117-.167-.095zm.263.01c.099-.091.188-.136.292-.263-.023-.014-.437-.367-.438-.351-.003.047-.004.04-.013.097-.02.131-.02.234-.062.382-.004.015.151.076.221.135zm.877 1.397c.258-.36.406-.747.493-1.166-.15.192-.37.358-.591.444-.155.481-.082.977.098.722zM8.764 18.7c.482-.488-.632-.856-.278-1.244.199-.218.899.489 1.216.491.855.093.81-.699 1.262-.677-.425-.42-.876-.191-.971-.084-.284.325-.615.107-.843-.067-.126-.161-.336-.186-.522-.137-.089.007.179-.307.528-.241.787.149 1.575-.126 1.769-.232.317-.174.494-.468.848-.797-.111.02-.765.376-.975.479-.631.31-1.025-.092-1.095-.09-.122.004-.09-.089.1-.149.646-.141 1.093-.697 1.709-.916.681-.297 1.544-.096 2.12-.652.184-.151.29-.409.527-.486-.179-.16-.354.159-.446.049.164-.255.269-.448.287-.765.009-.172.213-.331.26-.426-.195.028-.718.329-.824.502-.351.453-.333.879-1.803 1.512-.073 0 .272-.245.37-.528.046-.133.24-.748.107-1.045-.304.301-.242.4-.328.623-.219.587-.339.642-.887 1.004-.073.048-.494.682-1.039.712.055-.014.023-.146.207-.264.611-.391.379-1.234 1.176-1.374-.397-.137-.669.24-.742.201.321-.434.038-.801.085-1.156-.107.055-.214.183-.224.287-.06.633-.363.742-.393 1.015.064.451-.307.801-.579 1.118-.052-.262.018-.496.357-.713.187-.119-.018-.479-.018-.479-.076.394-.303.514-.444.533-.123.017.433-.55.368-1.069-.028-.231-.096-.128-.135-.388-.479.519-.128.841-.619 1.44-.232.284-.32.783-.351.796.006-.744.03-.526.369-1.13.278-.497-.015-.96-.053-1.259-.61.409-.559 1.2-.575 1.028-.015-.168-.091-.464-.009-.732.135-.445-.152-1.124-.152-1.124-.854 1.306-.138 2.832-.191 2.813-.371-.566-.641-.588-.721-1.022-.044-.236-.484-1.529-1.291-1.553.407.343.308.39.335.951-.259 1.403 1.753 1.549 1.618 2.276-.276-.431-.697-.613-1.33-.949-.281-.218-.598-.314-.616-.654.034-.246.048-.196.005-.517-.031-.229-.262-.091-.432-.569-.363.321-.23.684-.201.891.009.058.05.277-.005.404-.13-.087-.219-.266-.364-.446-.26-.325-.257-.72-.388-.995-.06-.127-.147-.3-.198-.302l-.009.005c-.064.51-.033.956.204 1.338 0 0-.065.11-.118.138a.992.992 0 0 1-.675-.601c-.281.23-.082.526-.095.521-.63-.315.007-1.535-.89-1.499.221.235.081.536.062.819-.005.457.591.813.591.813-.664-.219-.801.085-.793.085 0 0 .979.414 2.524.571.199.021.482.248.435.248-.198-.015-.591-.265-1.158.226.334.009.562.539 1.105.235 1.398-.386 1.916.291 2.144.465-.049.085-1.075-.629-1.889-.155-.433.252-1.128.024-1.673-.374.22.548 1.156 1.165 1.466 1.165.379.001.864-.483 1.415-.456.882.042 1.005.811.907.751 0 .001-.694-1.119-1.586.077.417-.186.975-.138 1.463.087.065.031-.12.231-.251.377-.086.094-.458.632-.86.102-.06-.078-.252-.57-1.51-.466.475.21.999.758 1.258 1.009.659.636 1.656-.773 1.694-.615 0 .316.167.469.255.641.22.431-.281.359-.553.248 0 0 .52.791.956.351zm3.415-13.192c-.084.004-.152.01-.209-.002-.006-.079.003-.511 0-.581-.006-.085-.146-.116-.24-.118.065-.036.22-.174.274-.21.089.068.147.135.191.183.059-.03.152-.096.197-.132.079.054.166.125.199.162.041-.037.092-.007.045.039a4.405 4.405 0 0 1-.187.158c-.057-.03-.156-.141-.188-.164-.016.014-.049.029-.078.045-.001.06 0 .559-.004.62zm.426-1.688a.625.625 0 0 1 .147.025c.032.013.046.081.004.076a.864.864 0 0 1-.165-.025c-.056-.016-.034-.076.014-.076zm-.011-.072c-.056-.015-.032-.078.013-.078s.117.013.151.026c.032.013.046.08.002.076a1.034 1.034 0 0 1-.166-.024zm-.513.547c-.263-.002-.39-.302-.385-.448.008-.249.177-.46.451-.555.216.07.306.283.313.427.005.117-.074.27-.128.365-.085.055-.17.136-.251.211zm.186-.551c-.013-.107-.155-.225-.278-.269-.156.093-.156.252-.101.396.042.106.227.246.278.27a.556.556 0 0 0 .101-.397zm-.217-.868c-.15.029-.253.116-.322.169-.063-.055-.156-.202-.157-.303a.493.493 0 0 1 .135-.3l.016.008a.748.748 0 0 1-.088-.057c-.021-.019-.028-.068 0-.108.04-.051.162-.2.282-.218.064-.009.172.008.32.137-.019.022-.019.443-.019.487.051.062.139.129.139.129l-.197.21a.244.244 0 0 1-.109-.154zm-.017-.528c.007-.054-.188-.155-.218-.155-.035-.003-.085.054-.129.117-.023.036-.021.044-.003.058.07.056.261.144.358.178 0-.081-.001-.16-.008-.198zm.004.402l.003-.161a1.769 1.769 0 0 1-.288-.122l.042.023c-.101.182.036.344.089.386a.42.42 0 0 1 .159-.046.622.622 0 0 1-.005-.08zm-.965-.661c-.019.008.019.453.033.489.011.037.047.092.088.057.038-.037.082.024.037.059-.026.02-.107.178-.145.201-.058.036-.142-.082-.169-.154-.044-.121-.074-.425-.073-.627.012.003-.172-.072-.089-.103a.817.817 0 0 0 .337-.332c.02-.055.072-.032.045.022-.053.111-.048.189-.025.255.008.017.319.01.366.01.026 0 .025.079 0 .079-.037 0-.405.044-.405.044zm-.747.698c-.07-.069-.117-.122-.131-.178l-.008-.463-.176-.098c-.033.043-.098.043-.073.007l.243-.209.053-.006.156.152-.003.478c.077.086.122.106.232.124l-.152.193h-.141zm-.061-1.062l-.071-.068-.002-.135.114-.095.115.109v.117l-.085.072h-.071zm-.5.108c-.016.087-.304.901-.338.954a5.389 5.389 0 0 0-.449-.988c-.079-.114-.155-.093-.228-.095-.071 0-.044-.065.014-.061.08.01.535.049.664.067.047.009.048.05-.013.069-.031.008-.104.042-.104.077 0 .048.165.402.211.469.038-.092.194-.479.163-.565-.034-.085-.047-.098-.111-.104-.065-.008-.065-.045.013-.057.077-.011.293-.029.359-.022.065.006.073.042-.015.065-.084.025-.145.107-.166.191zm-.29 1.182c.055.015.112 0 .112-.025 0-.036.051-.026.051 0 0 .027-.001.371-.004.402 0 .034-.051.03-.051 0 0-.049 0-.064-.044-.13-.128-.189-.483-.205-.659.022-.06.077-.083.209-.015.231.067.022.319.002.401-.013.081-.013.284-.047.308-.063.023-.013.054-.032.054.007 0 .04 0 .171-.002.21 0 .041-.032.022-.053.006a2.05 2.05 0 0 0-.297-.038c-.138-.011-.347-.053-.415-.033-.069.02-.015.124.045.202.173.229.497.236.627.049.047-.068.047-.081.047-.129 0-.03.053-.035.053 0l-.002.343c0 .028-.054.036-.054-.001.002-.061-.037-.056-.108-.036-.188.049-.439.065-.589-.018-.158-.088-.296-.117-.299-.455-.003-.206.192-.369.319-.44.144-.076.465-.125.575-.091zm-.595 1.138c-.006.103-.006.816 0 .89.007.073.072.096.137.066.033-.012.062.01.02.044-.072.052-.16.176-.2.223-.082-.055-.172-.124-.166-.19.011-.115-.025-.943-.029-1.039.047.004.188.006.238.006zm.443.656c-.022-.018-.054-.164-.024-.202.038-.053.191-.258.311-.267.082-.007.146.092.217.166-.018.019-.01.376-.013.419.077.081.108.099.154.069.046-.031.064 0 .032.03-.032.031-.178.205-.218.248-.066-.049-.123-.061-.144-.14-.171.065-.236.161-.339.231a.367.367 0 0 1-.112-.254c-.002-.099.099-.233.155-.285-.007-.007-.011-.007-.019-.015zm.138.32c.065-.031.121-.059.167-.091l.003-.152c-.104.011-.138.033-.205-.003-.092.17-.016.205.035.246zm-.087-.356c.102.084.166.074.257.063a1.326 1.326 0 0 0-.007-.186c.007-.055-.115-.137-.147-.138-.035 0-.062.012-.106.077-.021.035-.016.169.003.184zm.732-.315c.137-.066.271-.203.292-.261.021-.053.073-.029.046.026a.44.44 0 0 0-.03.229c.006.017.109.026.155.027.027 0 .025.08-.002.08-.034-.002-.162.001-.162.001-.019.009-.005.447.006.484.014.037.121.062.16.026.039-.036.08.001.032.036-.024.02-.106.145-.169.169-.067.026-.166-.016-.21-.08-.07-.104-.029-.432-.026-.632.012.003-.17-.067-.092-.105zm-.324-1.101c-.04.015-.051-.046-.022-.059.093-.044.296-.195.324-.225.086.015.193.088.208.156.065-.039.181-.162.215-.19.04.067.156.15.286.196-.118.197-.382.079-.42.03-.042.069-.052.111-.01.198.054.118.271.23.383.259-.034.035-.19.206-.245.241a.86.86 0 0 1-.242-.226c-.104.13-.129.241-.319.289a.64.64 0 0 0 .204-.479c-.009-.171-.105-.255-.189-.287-.072.034-.135.08-.173.097zm1.749.571c.036-.005.025-.015.052-.039.026-.024.057-.002.036.022a4.08 4.08 0 0 1-.296.262c-.054.014-.173.01-.244-.078-.127-.155-.218-.211-.179-.492.028-.191.354-.356.429-.397.03.029.178.181.244.232-.026.032-.108.068-.187.067-.081 0-.135-.066-.188-.124-.038.035-.121.082-.144.197-.032.156.106.283.211.337.085.043.23.019.266.013zm-.481.714c-.002.109-.025.339-.018.42.004.078.323.131.337.015.015-.115.004-.263 0-.33-.005-.053-.131-.078-.195-.07.086-.087.159-.152.213-.201a.909.909 0 0 1 .198.205c-.002.117-.023.39-.006.462.022.075.014.08.071.118-.059.054-.103.077-.143.12-.06-.018-.161-.106-.155-.184a1.814 1.814 0 0 1-.366.156c-.078-.079-.137-.099-.142-.195-.005-.098.022-.354-.01-.414-.031-.061-.085-.075-.151-.079.079-.086.163-.141.211-.189a.524.524 0 0 1 .156.166zm-3.07 2.857c-.04-.026-.125-.048-.114-.108a.68.68 0 0 0 .205.06s-.168-.136-.02-.303c-.189.116-.255.084-.255.023 0-.028.248-.204.481-.118.169.063.314.188.498.214v.012c-.275.052-.481.346-.795.22zm.567-.212a1.71 1.71 0 0 0-.299-.151s.082.062.082.147c.001.063-.083.151-.083.151l.3-.147zM6.443 5.201c-.067-.067-.114-.079-.126-.132l-.003-.426-.137-.068c-.063.051-.111.029-.056-.018l.206-.188.049-.006.132.188.003.402c.054.047.006.047.108.065l-.09.097-.086.086zm.414-.433c-.021-.017-.057-.201-.029-.24.036-.05.202-.206.313-.217.077-.008.191.154.257.226-.019.021.023.467.023.509.023.037.103.063.127.027.031-.039.061.003.031.033-.031.027-.145.117-.18.159-.051-.039-.137-.082-.193-.148-.113.02-.231.101-.323.167-.103-.045-.137-.144-.141-.243-.001-.104.055-.187.129-.262a.076.076 0 0 0-.014-.011zm.308-.131c.009-.053-.16-.153-.187-.153-.036-.001-.036.019-.076.081-.02.034-.004.135.014.15.092.078.164.104.248.102a.9.9 0 0 0 .001-.18zm-.16.462c.049-.025.113-.035.164-.053-.007-.018-.017-.037-.017-.059s.004-.069.008-.12c-.097.009-.141.016-.218-.035-.146.118.018.228.063.267zm.455-.997c-.066-.067-.114-.085-.125-.137l-.004-.438-.106-.064c-.063.054-.113.031-.057-.018l.208-.187.048-.006.09.129-.004.465c.055.049.055.042.158.061l-.092.097-.116.098zm-.046-1.726c.232.014.18.103.142.099-.249-.026-.185-.102-.142-.099zm.003-.145c.21.011.182.097.143.099-.249.009-.184-.101-.143-.099zm.048.842l-.08.07h-.067l-.065-.065-.002-.13.107-.095.107.108v.112zm-.434.661c.038-.081.094-.039.039.033a1.874 1.874 0 0 0-.141.213.394.394 0 0 1-.355-.264c-.07-.188.056-.363.118-.414.049-.04.163-.135.237-.18.072.042.127.072.163.089-.013.035-.029.103-.105.107-.114.003-.203-.028-.266.038-.061.064-.013.249.064.319.058.054.216.123.246.059zm.032-1.557c.181.103.243.248.065.385a.749.749 0 0 1-.426.166.714.714 0 0 1-.351-.129c.092-.084.191-.176.263-.236-.112-.083-.217-.197-.131-.325.064-.098.263-.253.438-.246.175.008.254.125.327.174-.026.03-.124.107-.236.194.017.004.034.006.051.017zm-.455.298c.029.054.216.186.32.139.103-.046.152-.146.056-.199-.066-.038-.126-.064-.185-.09a6.459 6.459 0 0 0-.191.15zm.131-.532c-.054-.005-.164.041-.122.096.041.053.085.118.174.131.03.003.059 0 .087-.004l.109-.086a.629.629 0 0 0-.248-.137zm-.66.711c-.237-.009-.536-.177-.492-.488.046-.324.307-.448.419-.451.129.01.158.117.231.182-.11.088-.29.26-.395.366a.35.35 0 0 0 .41.195c.119-.027.158.023.053.073-.049.023-.147.123-.226.123zm-.018-.686c-.042-.025-.118-.076-.147-.147-.132.102-.157.173-.091.38.048-.035.164-.162.238-.233zm-.721.18c-.05-.029-.113-.118-.144-.142-.015.014-.044.029-.073.045 0 .058.003.584-.003.645-.076.004-.142.009-.195-.003-.006-.077.005-.496.001-.565-.006-.083-.081-.089-.181-.118.056-.067.162-.142.209-.178.086.066.139.066.182.114a1.49 1.49 0 0 0 .196-.123c.041.047.116.123.146.157.04-.037.087-.006.043.037-.043.041-.142.103-.181.131zm-.457 1.679c.016.025.07.055.091.035.037-.035.061 0 .029.029-.029.028-.178.154-.215.194-.052-.038-.071-.095-.078-.172a.376.376 0 0 0-.231.151c-.102-.045-.181-.131-.184-.228-.002-.1.068-.158.143-.225l-.04-.032c-.021-.018-.049-.178-.029-.223.049-.112.213-.241.326-.251.076-.008.14.143.207.214-.019.02-.019.465-.019.508zm-.188-.41c.008-.053-.095-.173-.123-.175-.033-.001-.102.06-.141.12-.02.035-.024.127.019.176.087.096.128.099.254.019a.968.968 0 0 0-.009-.14zm.011.195c-.086.052-.12.091-.208.041-.144.113.075.183.122.222.034-.017.062-.023.086-.029V3.78v-.168zm-.161-.742c-.033-.049-.042-.091-.111-.073-.174.05-.365.101-.503.022-.148-.089-.275-.116-.279-.445-.003-.199.178-.358.296-.426.134-.075.365-.027.469.004.05.015.088.01.092-.054.001-.035.056-.026.055 0l-.002.465c-.001.032-.069.035-.067.005 0-.046-.016-.134-.032-.205-.023-.107-.308-.302-.514-.039-.004.012-.088.151-.077.258.007.08.02.192.075.266.162.224.392.149.513-.033.043-.066.036-.147.039-.195 0-.029.065-.032.065 0l-.003.327c.001.039.03.071.046.09.04.059-.005.107-.062.033zm-.473.156c.04.047.089.119.149.196-.06.046-.122.106-.158.148-.027-.031-.181-.255-.29-.098-.059.084-.121.328.08.48.097.072.2.096.334.075a.95.95 0 0 0-.124.186c-.194.034-.272-.026-.367-.103-.202-.161-.138-.435-.022-.609.081-.117.269-.229.398-.275zm.355 1.581c-.109.087-.36.293-.457.364.053.094.253.161.319.09.05-.049.111-.032.056.031a1.508 1.508 0 0 0-.184.27c-.145-.06-.447-.246-.404-.559.049-.325.372-.457.469-.521.017.094.129.259.201.325zm-.493.314c.05-.034.227-.151.299-.222a.715.715 0 0 1-.164-.234c-.275.164-.226.345-.135.456zm.924-.37c.065-.055.174-.122.223-.175.048.023.131.072.137.239.004.166.027.426.027.484 0 .03.009.021.058.01.047-.012.065.011.029.041-.036.029-.203.143-.248.192a.37.37 0 0 1-.046-.292c.02-.087.003-.324.003-.378 0-.053-.083-.072-.119-.102a.799.799 0 0 0-.099.082c0 .072-.009.571.002.637-.115.004-.103-.003-.17-.003-.006-.096-.002-.481-.008-.564-.006-.082-.079-.142-.121-.19.091-.071.141-.123.204-.181.054.084.078.164.128.2zm.326-1.231c.008.001-.035-.048-.077-.056-.053-.014-.062-.032.02-.065.1-.038.256-.274.278-.327.019-.052.049-.003.02.048a.435.435 0 0 0-.026.292c.007.019.196-.007.237-.007.026.001.023.079-.002.077-.032-.001-.281.03-.281.03-.017.008.02.389.045.418.004.004.082.071.112.042.037-.034.073.003.029.038-.023.018-.066.094-.123.138-.049.043-.158-.024-.197-.089-.063-.102-.043-.343-.035-.539zm1.255.834c-.063.058-.112.113-.167.172a2 2 0 0 1-.173-.138.332.332 0 0 0 .17-.153.22.22 0 0 0 .17.119zm-.561-.334c-.037.002-.063.013-.07.052-.005.042-.061.06-.072.005a3.034 3.034 0 0 1-.028-.342c0-.066.062-.072.074 0 .012.07.033.12.089.18.043.048.319.114.421.035.082-.064.063-.204-.023-.258-.085-.056-.427-.133-.486-.228-.099-.163.079-.3.157-.344.122-.067.264-.045.313-.045.048 0 .111.016.115-.035.003-.05.042-.046.048.007.016.146.03.058.026.213 0 .071-.026.072-.058.018-.02-.037-.231-.208-.4-.102-.145.094-.09.175.042.21.145.045.358.012.426.199.073.198-.059.451-.227.463-.141.011-.268-.035-.347-.028zm-.359.699c.077-.054.207-.289.225-.342.016-.055.048-.036.043.022-.007.083-.047.268-.031.306.007.019.128.017.168.017.027 0 .029.077.004.077-.033 0-.168.019-.168.019-.02.008-.009.282.017.311.054.051.095.086.169.01.036-.036.074-.003.031.034a.903.903 0 0 0-.148.202c-.023.059-.158.014-.201-.048-.068-.099-.039-.301-.045-.497.013.003-.129-.063-.064-.111z"/>
</svg>
